<svg width="17" height="16" viewBox="0 0 17 16" fill="none" xmlns="http://www.w3.org/2000/svg">
<path fill-rule="evenodd" clip-rule="evenodd" d="M13.3002 5.85024C13.4974 6.31881 13.6296 6.81257 13.6911 7.31751L14.3513 7.62383C15.0094 7.92736 15.352 8.6631 15.1597 9.36177L14.9052 10.3052C14.7192 11.0004 14.0603 11.4606 13.3442 11.3976L12.6205 11.334C12.4617 11.5382 12.2882 11.7305 12.1022 11.9117C11.9225 12.0907 11.7308 12.2578 11.5294 12.4117L11.5931 13.1355C11.656 13.8524 11.1944 14.5112 10.4992 14.6965L9.55587 14.9511C8.86281 15.1385 8.13544 14.8014 7.82983 14.1517L7.5235 13.4915C7.02276 13.423 6.53471 13.2859 6.07174 13.0838L5.47517 13.5013C4.88632 13.9146 4.08553 13.8447 3.57709 13.3356L2.87001 12.6285C2.36089 12.1194 2.29164 11.3193 2.70496 10.7297L3.1218 10.1332C2.92458 9.66459 2.79242 9.17083 2.73087 8.66659L2.07065 8.35957C1.41745 8.05675 1.07688 7.3266 1.26431 6.63073L1.51894 5.68798C1.70497 4.99281 2.36309 4.53263 3.07993 4.59557L3.80296 4.65922C4.11067 4.25498 4.47085 3.89341 4.87647 3.58638L4.8121 2.87863C4.74426 2.15548 5.21011 1.48898 5.91366 1.30574L6.85629 1.05117C7.55215 0.863743 8.28166 1.20434 8.58447 1.85755L8.8908 2.51845C9.39573 2.57999 9.88937 2.71148 10.3572 2.9094L10.9468 2.48278C11.5357 2.06945 12.3365 2.13869 12.8449 2.64783L13.552 3.35489C14.0604 3.86403 14.1303 4.6648 13.717 5.25367L13.3002 5.85024ZM5.76536 7.99944C5.76536 6.64616 6.86191 5.55025 8.21515 5.55025C9.56769 5.55235 10.6628 6.64756 10.6649 7.99944C10.6649 9.35131 9.56839 10.4479 8.21515 10.4479C6.86191 10.4479 5.76536 9.35131 5.76536 7.99944Z" fill="black"/>
</svg>
